<svg xmlns="http://www.w3.org/2000/svg" viewBox="0 0 50 36"><style>:root { --id : social-button-icon;--primary : #ffffff; }</style><title>YouTube Icon</title><desc>YouTube Icon</desc><path fill-rule="evenodd" style="fill:var(--primary, #000000)" d="M49.5 7.57s-.49-3.44-1.99-4.95c-1.9-1.99-4.03-2-5-2.12C35.5 0 25 0 25 0h-.02s-10.5 0-17.5.5c-.97.12-3.1.13-5 2.12C.99 4.13.5 7.57.5 7.57S0 11.6 0 15.64v3.78c0 4.04.5 8.07.5 8.07s.5 3.44 2 4.95c1.9 1.99 4.4 1.93 5.51 2.13 4 .39 17 .5 17 .5s10.5-.01 17.5-.52c.98-.11 3.11-.12 5.01-2.1 1.5-1.52 2-4.96 2-4.96s.49-4.03.49-8.07v-3.78c0-4.04-.5-8.07-.5-8.07ZM19.84 24V9.99l13.5 7.03-13.5 6.99Z" clip-rule="evenodd"/><path fill="transparent" d="M19.84 10v14l13.5-6.98L19.85 10Z"/></svg>